<mxfile host="app.diagrams.net" modified="2022-02-11T22:56:48.619Z" agent="5.0 (Windows NT 10.0; Win64; x64) AppleWebKit/537.36 (KHTML, like Gecko) Chrome/98.0.4758.82 Safari/537.36" etag="fk75sJPDTx8HCKu8ESIu" version="16.5.3" type="github">
  <diagram id="I9oDGClTtLo3D-e7rfP1" name="Page-1">
    <mxGraphModel dx="2076" dy="1094" grid="1" gridSize="10" guides="1" tooltips="1" connect="1" arrows="1" fold="1" page="1" pageScale="1" pageWidth="827" pageHeight="1169" math="0" shadow="0">
      <root>
        <mxCell id="0" />
        <mxCell id="1" parent="0" />
        <mxCell id="t9oLwhMx5HOXyN6hdXH--61" value="" style="rounded=0;whiteSpace=wrap;html=1;fillColor=#95F5F5;strokeColor=#666666;fontColor=#333333;" vertex="1" parent="1">
          <mxGeometry x="710" y="14" width="298" height="826" as="geometry" />
        </mxCell>
        <mxCell id="t9oLwhMx5HOXyN6hdXH--49" value="" style="rounded=0;whiteSpace=wrap;html=1;fillColor=#dae8fc;strokeColor=#6c8ebf;" vertex="1" parent="1">
          <mxGeometry x="1500" y="14" width="370" height="826" as="geometry" />
        </mxCell>
        <mxCell id="t9oLwhMx5HOXyN6hdXH--1" value="" style="rounded=0;whiteSpace=wrap;html=1;fillColor=#C9F57D;strokeColor=#666666;fontColor=#333333;" vertex="1" parent="1">
          <mxGeometry x="380" y="16" width="330" height="824" as="geometry" />
        </mxCell>
        <mxCell id="t9oLwhMx5HOXyN6hdXH--2" value="" style="rounded=0;whiteSpace=wrap;html=1;fillColor=#dae8fc;strokeColor=#6c8ebf;" vertex="1" parent="1">
          <mxGeometry x="1010" y="13" width="315" height="826" as="geometry" />
        </mxCell>
        <mxCell id="t9oLwhMx5HOXyN6hdXH--3" value="" style="rounded=0;whiteSpace=wrap;html=1;fillColor=#d5e8d4;strokeColor=#82b366;" vertex="1" parent="1">
          <mxGeometry x="1327" y="14" width="171" height="826" as="geometry" />
        </mxCell>
        <mxCell id="t9oLwhMx5HOXyN6hdXH--5" value="" style="endArrow=classic;html=1;rounded=0;fontColor=#FF142C;labelBackgroundColor=#FF142C;strokeColor=#FF3A24;strokeWidth=2;" edge="1" parent="1" target="t9oLwhMx5HOXyN6hdXH--7" source="t9oLwhMx5HOXyN6hdXH--10">
          <mxGeometry width="50" height="50" relative="1" as="geometry">
            <mxPoint x="993.1600000000001" y="752.4699999999999" as="sourcePoint" />
            <mxPoint x="1073.1599999999999" y="745.1972727272727" as="targetPoint" />
          </mxGeometry>
        </mxCell>
        <mxCell id="t9oLwhMx5HOXyN6hdXH--6" value="&lt;font color=&quot;#000000&quot; style=&quot;font-size: 14px&quot;&gt;&lt;b&gt;Client&lt;/b&gt;&lt;/font&gt;" style="image;html=1;image=img/lib/clip_art/computers/Database_128x128.png;fontColor=#FF142C;" vertex="1" parent="1">
          <mxGeometry x="1359.9999999999998" y="271.53999999999996" width="80" height="80" as="geometry" />
        </mxCell>
        <mxCell id="t9oLwhMx5HOXyN6hdXH--7" value="&lt;font color=&quot;#000000&quot; style=&quot;font-size: 14px&quot;&gt;&lt;b&gt;Product&lt;/b&gt;&lt;/font&gt;" style="image;html=1;image=img/lib/clip_art/computers/Database_128x128.png;fontColor=#FF142C;" vertex="1" parent="1">
          <mxGeometry x="1360" y="141" width="80" height="80" as="geometry" />
        </mxCell>
        <mxCell id="t9oLwhMx5HOXyN6hdXH--8" value="&lt;font color=&quot;#000000&quot; size=&quot;1&quot;&gt;&lt;b style=&quot;font-size: 14px&quot;&gt;Movements&lt;/b&gt;&lt;/font&gt;" style="image;html=1;image=img/lib/clip_art/computers/Database_128x128.png;fontColor=#FF142C;" vertex="1" parent="1">
          <mxGeometry x="1369.9999999999998" y="591" width="80" height="80" as="geometry" />
        </mxCell>
        <mxCell id="t9oLwhMx5HOXyN6hdXH--52" style="edgeStyle=orthogonalEdgeStyle;rounded=0;orthogonalLoop=1;jettySize=auto;html=1;fontSize=14;fontColor=#000000;" edge="1" parent="1" source="t9oLwhMx5HOXyN6hdXH--11" target="t9oLwhMx5HOXyN6hdXH--14">
          <mxGeometry relative="1" as="geometry" />
        </mxCell>
        <mxCell id="t9oLwhMx5HOXyN6hdXH--13" value="&lt;font color=&quot;#000000&quot; style=&quot;font-size: 14px&quot;&gt;&lt;b&gt;Asignature&lt;/b&gt;&lt;/font&gt;" style="image;html=1;image=img/lib/clip_art/computers/Database_128x128.png;fontColor=#FF142C;" vertex="1" parent="1">
          <mxGeometry x="1359.9999999999998" y="430.99999999999994" width="80" height="80" as="geometry" />
        </mxCell>
        <mxCell id="t9oLwhMx5HOXyN6hdXH--53" style="edgeStyle=orthogonalEdgeStyle;rounded=0;orthogonalLoop=1;jettySize=auto;html=1;entryX=0.516;entryY=1.062;entryDx=0;entryDy=0;entryPerimeter=0;fontSize=14;fontColor=#000000;" edge="1" parent="1" source="t9oLwhMx5HOXyN6hdXH--14" target="t9oLwhMx5HOXyN6hdXH--9">
          <mxGeometry relative="1" as="geometry" />
        </mxCell>
        <mxCell id="t9oLwhMx5HOXyN6hdXH--14" value="&lt;font style=&quot;font-size: 14px&quot;&gt;&lt;b&gt;Asignature&lt;/b&gt;&lt;/font&gt;" style="aspect=fixed;html=1;points=[];align=center;image;fontSize=12;image=img/lib/azure2/ai_machine_learning/Cognitive_Services.svg;fontColor=#000000;" vertex="1" parent="1">
          <mxGeometry x="1102" y="417.91999999999996" width="109.17" height="77.06" as="geometry" />
        </mxCell>
        <mxCell id="t9oLwhMx5HOXyN6hdXH--15" value="" style="endArrow=classic;html=1;rounded=0;fontColor=#FF142C;labelBackgroundColor=#FF142C;strokeColor=#FF3A24;strokeWidth=2;" edge="1" parent="1" source="t9oLwhMx5HOXyN6hdXH--9" target="t9oLwhMx5HOXyN6hdXH--6">
          <mxGeometry width="50" height="50" relative="1" as="geometry">
            <mxPoint x="1319.9999999999995" y="301.5399999999999" as="sourcePoint" />
            <mxPoint x="1319.9999999999995" y="394.47999999999973" as="targetPoint" />
          </mxGeometry>
        </mxCell>
        <mxCell id="t9oLwhMx5HOXyN6hdXH--16" value="" style="endArrow=classic;html=1;rounded=0;fontColor=#FF142C;labelBackgroundColor=#FF142C;strokeColor=#FF3A24;strokeWidth=2;" edge="1" parent="1" source="t9oLwhMx5HOXyN6hdXH--14" target="t9oLwhMx5HOXyN6hdXH--13">
          <mxGeometry width="50" height="50" relative="1" as="geometry">
            <mxPoint x="1410.5699999999997" y="750.9999999999999" as="sourcePoint" />
            <mxPoint x="1410.5699999999997" y="843.9399999999997" as="targetPoint" />
          </mxGeometry>
        </mxCell>
        <mxCell id="t9oLwhMx5HOXyN6hdXH--17" value="" style="endArrow=classic;html=1;rounded=0;fontColor=#FF142C;labelBackgroundColor=#FF142C;strokeColor=#FF3A24;strokeWidth=2;" edge="1" parent="1" source="t9oLwhMx5HOXyN6hdXH--11" target="t9oLwhMx5HOXyN6hdXH--8">
          <mxGeometry width="50" height="50" relative="1" as="geometry">
            <mxPoint x="1622.1600000000003" y="750.9999999999999" as="sourcePoint" />
            <mxPoint x="1622.1600000000003" y="843.9399999999997" as="targetPoint" />
          </mxGeometry>
        </mxCell>
        <mxCell id="t9oLwhMx5HOXyN6hdXH--62" style="edgeStyle=orthogonalEdgeStyle;rounded=0;orthogonalLoop=1;jettySize=auto;html=1;entryX=0.24;entryY=0.76;entryDx=0;entryDy=0;entryPerimeter=0;fontSize=20;fontColor=#000000;strokeColor=#9933FF;strokeWidth=4;" edge="1" parent="1" source="t9oLwhMx5HOXyN6hdXH--24" target="t9oLwhMx5HOXyN6hdXH--50">
          <mxGeometry relative="1" as="geometry" />
        </mxCell>
        <mxCell id="t9oLwhMx5HOXyN6hdXH--63" style="edgeStyle=orthogonalEdgeStyle;rounded=0;orthogonalLoop=1;jettySize=auto;html=1;entryX=0.5;entryY=1;entryDx=0;entryDy=0;entryPerimeter=0;fontSize=20;fontColor=#000000;strokeColor=#9933FF;strokeWidth=4;" edge="1" parent="1" source="t9oLwhMx5HOXyN6hdXH--24" target="t9oLwhMx5HOXyN6hdXH--40">
          <mxGeometry relative="1" as="geometry">
            <Array as="points">
              <mxPoint x="859" y="830" />
              <mxPoint x="1820" y="830" />
              <mxPoint x="1820" y="301" />
            </Array>
          </mxGeometry>
        </mxCell>
        <mxCell id="t9oLwhMx5HOXyN6hdXH--66" style="edgeStyle=orthogonalEdgeStyle;rounded=0;orthogonalLoop=1;jettySize=auto;html=1;fontSize=20;fontColor=#000000;strokeColor=#9933FF;strokeWidth=4;" edge="1" parent="1" source="t9oLwhMx5HOXyN6hdXH--24" target="t9oLwhMx5HOXyN6hdXH--65">
          <mxGeometry relative="1" as="geometry" />
        </mxCell>
        <mxCell id="t9oLwhMx5HOXyN6hdXH--24" value="GitHub" style="dashed=0;outlineConnect=0;html=1;align=center;labelPosition=center;verticalLabelPosition=bottom;verticalAlign=top;shape=mxgraph.weblogos.github;fontSize=14;fontStyle=1;labelBackgroundColor=default;" vertex="1" parent="1">
          <mxGeometry x="821.5" y="715" width="75" height="75" as="geometry" />
        </mxCell>
        <mxCell id="t9oLwhMx5HOXyN6hdXH--67" style="edgeStyle=orthogonalEdgeStyle;rounded=0;orthogonalLoop=1;jettySize=auto;html=1;fontSize=20;fontColor=#000000;strokeColor=#99004D;strokeWidth=4;" edge="1" parent="1" source="t9oLwhMx5HOXyN6hdXH--26" target="t9oLwhMx5HOXyN6hdXH--65">
          <mxGeometry relative="1" as="geometry">
            <Array as="points">
              <mxPoint x="520" y="500" />
            </Array>
          </mxGeometry>
        </mxCell>
        <mxCell id="t9oLwhMx5HOXyN6hdXH--26" value="&lt;font style=&quot;font-size: 20px&quot;&gt;UI&lt;/font&gt;" style="aspect=fixed;perimeter=ellipsePerimeter;html=1;align=center;shadow=0;dashed=0;spacingTop=3;image;image=img/lib/active_directory/home_page.svg;fillColor=#95F5F5;fontSize=14;fontStyle=1" vertex="1" parent="1">
          <mxGeometry x="440" y="65.53" width="160" height="144" as="geometry" />
        </mxCell>
        <mxCell id="t9oLwhMx5HOXyN6hdXH--28" value="Microservicios" style="ellipse;whiteSpace=wrap;html=1;align=center;newEdgeStyle={&quot;edgeStyle&quot;:&quot;entityRelationEdgeStyle&quot;,&quot;startArrow&quot;:&quot;none&quot;,&quot;endArrow&quot;:&quot;none&quot;,&quot;segment&quot;:10,&quot;curved&quot;:1};treeFolding=1;treeMoving=1;fontSize=14;fillColor=#FFFFFF;fontStyle=1" vertex="1" collapsed="1" parent="1">
          <mxGeometry x="1190" y="690" width="110" height="50" as="geometry" />
        </mxCell>
        <mxCell id="t9oLwhMx5HOXyN6hdXH--44" style="edgeStyle=orthogonalEdgeStyle;rounded=0;orthogonalLoop=1;jettySize=auto;html=1;" edge="1" parent="1" source="t9oLwhMx5HOXyN6hdXH--40" target="t9oLwhMx5HOXyN6hdXH--12">
          <mxGeometry relative="1" as="geometry">
            <Array as="points">
              <mxPoint x="1733" y="206.54000000000002" />
            </Array>
          </mxGeometry>
        </mxCell>
        <mxCell id="t9oLwhMx5HOXyN6hdXH--45" style="edgeStyle=orthogonalEdgeStyle;rounded=0;orthogonalLoop=1;jettySize=auto;html=1;exitX=0.5;exitY=1;exitDx=0;exitDy=0;exitPerimeter=0;entryX=1.02;entryY=0.706;entryDx=0;entryDy=0;entryPerimeter=0;" edge="1" parent="1" source="t9oLwhMx5HOXyN6hdXH--40" target="t9oLwhMx5HOXyN6hdXH--43">
          <mxGeometry relative="1" as="geometry">
            <Array as="points">
              <mxPoint x="1733" y="420.54" />
            </Array>
          </mxGeometry>
        </mxCell>
        <mxCell id="t9oLwhMx5HOXyN6hdXH--79" style="edgeStyle=orthogonalEdgeStyle;rounded=0;orthogonalLoop=1;jettySize=auto;html=1;fontSize=14;fontColor=#000000;strokeColor=#000000;strokeWidth=1;" edge="1" parent="1" source="t9oLwhMx5HOXyN6hdXH--40" target="t9oLwhMx5HOXyN6hdXH--76">
          <mxGeometry relative="1" as="geometry">
            <Array as="points">
              <mxPoint x="1733" y="480" />
              <mxPoint x="1690" y="480" />
            </Array>
          </mxGeometry>
        </mxCell>
        <mxCell id="t9oLwhMx5HOXyN6hdXH--40" value="&lt;font style=&quot;font-size: 14px&quot;&gt;&lt;b&gt;RepositoryGit&lt;/b&gt;&lt;/font&gt;" style="verticalLabelPosition=bottom;html=1;verticalAlign=top;align=center;strokeColor=none;fillColor=#00BEF2;shape=mxgraph.azure.git_repository;labelBackgroundColor=default;" vertex="1" parent="1">
          <mxGeometry x="1708" y="250.54000000000008" width="50" height="50" as="geometry" />
        </mxCell>
        <mxCell id="t9oLwhMx5HOXyN6hdXH--41" value="" style="shape=image;verticalLabelPosition=bottom;labelBackgroundColor=default;verticalAlign=top;aspect=fixed;imageAspect=0;image=https://assets-global.website-files.com/5f1c75e63b2f950eb473d3e4/603c5eb831820c3ce6a8f057_603a1586fa052d17fc2a6929_MongoDBAtlas.png;" vertex="1" parent="1">
          <mxGeometry x="1380" y="707.5" width="90" height="90" as="geometry" />
        </mxCell>
        <mxCell id="t9oLwhMx5HOXyN6hdXH--55" style="edgeStyle=orthogonalEdgeStyle;rounded=0;orthogonalLoop=1;jettySize=auto;html=1;fontSize=14;fontColor=#000000;strokeColor=#9933FF;strokeWidth=4;" edge="1" parent="1" source="t9oLwhMx5HOXyN6hdXH--43" target="t9oLwhMx5HOXyN6hdXH--14">
          <mxGeometry relative="1" as="geometry">
            <Array as="points">
              <mxPoint x="1330" y="397" />
              <mxPoint x="1330" y="456" />
            </Array>
          </mxGeometry>
        </mxCell>
        <mxCell id="t9oLwhMx5HOXyN6hdXH--56" style="edgeStyle=orthogonalEdgeStyle;rounded=0;orthogonalLoop=1;jettySize=auto;html=1;entryX=0.898;entryY=0.895;entryDx=0;entryDy=0;entryPerimeter=0;fontSize=14;fontColor=#000000;strokeColor=#9933FF;strokeWidth=4;" edge="1" parent="1" source="t9oLwhMx5HOXyN6hdXH--43" target="t9oLwhMx5HOXyN6hdXH--9">
          <mxGeometry relative="1" as="geometry" />
        </mxCell>
        <mxCell id="t9oLwhMx5HOXyN6hdXH--57" style="edgeStyle=orthogonalEdgeStyle;rounded=0;orthogonalLoop=1;jettySize=auto;html=1;entryX=0.942;entryY=0.995;entryDx=0;entryDy=0;entryPerimeter=0;fontSize=14;fontColor=#000000;strokeColor=#9933FF;strokeWidth=4;" edge="1" parent="1" source="t9oLwhMx5HOXyN6hdXH--43" target="t9oLwhMx5HOXyN6hdXH--10">
          <mxGeometry relative="1" as="geometry" />
        </mxCell>
        <mxCell id="t9oLwhMx5HOXyN6hdXH--58" style="edgeStyle=orthogonalEdgeStyle;rounded=0;orthogonalLoop=1;jettySize=auto;html=1;entryX=1.012;entryY=0.486;entryDx=0;entryDy=0;entryPerimeter=0;fontSize=14;fontColor=#000000;strokeColor=#9933FF;strokeWidth=4;exitX=0.545;exitY=1.037;exitDx=0;exitDy=0;exitPerimeter=0;" edge="1" parent="1" source="t9oLwhMx5HOXyN6hdXH--43" target="t9oLwhMx5HOXyN6hdXH--11">
          <mxGeometry relative="1" as="geometry">
            <Array as="points">
              <mxPoint x="1583" y="540" />
              <mxPoint x="1221" y="540" />
            </Array>
          </mxGeometry>
        </mxCell>
        <mxCell id="t9oLwhMx5HOXyN6hdXH--60" style="edgeStyle=orthogonalEdgeStyle;rounded=0;orthogonalLoop=1;jettySize=auto;html=1;fontSize=14;fontColor=#000000;strokeColor=#9933FF;strokeWidth=4;" edge="1" parent="1" source="t9oLwhMx5HOXyN6hdXH--43" target="t9oLwhMx5HOXyN6hdXH--12">
          <mxGeometry relative="1" as="geometry" />
        </mxCell>
        <mxCell id="t9oLwhMx5HOXyN6hdXH--43" value="&lt;font style=&quot;font-size: 14px&quot;&gt;&lt;b&gt;Eureka Service&lt;/b&gt;&lt;/font&gt;" style="aspect=fixed;html=1;points=[];align=center;image;fontSize=12;image=img/lib/azure2/app_services/API_Management_Services.svg;fontColor=#000000;" vertex="1" parent="1">
          <mxGeometry x="1516" y="340.39" width="122.5" height="113.07" as="geometry" />
        </mxCell>
        <mxCell id="t9oLwhMx5HOXyN6hdXH--54" style="edgeStyle=orthogonalEdgeStyle;rounded=0;orthogonalLoop=1;jettySize=auto;html=1;fontSize=14;fontColor=#000000;" edge="1" parent="1" source="t9oLwhMx5HOXyN6hdXH--9" target="t9oLwhMx5HOXyN6hdXH--10">
          <mxGeometry relative="1" as="geometry" />
        </mxCell>
        <mxCell id="t9oLwhMx5HOXyN6hdXH--9" value="&lt;font style=&quot;font-size: 14px&quot;&gt;&lt;b&gt;Client&lt;/b&gt;&lt;/font&gt;" style="aspect=fixed;html=1;points=[];align=center;image;fontSize=12;image=img/lib/azure2/ai_machine_learning/Cognitive_Services.svg;fontColor=#000000;" vertex="1" parent="1">
          <mxGeometry x="1102" y="261" width="109.17" height="77.06" as="geometry" />
        </mxCell>
        <mxCell id="t9oLwhMx5HOXyN6hdXH--48" value="Microservicios" style="ellipse;whiteSpace=wrap;html=1;align=center;newEdgeStyle={&quot;edgeStyle&quot;:&quot;entityRelationEdgeStyle&quot;,&quot;startArrow&quot;:&quot;none&quot;,&quot;endArrow&quot;:&quot;none&quot;,&quot;segment&quot;:10,&quot;curved&quot;:1};treeFolding=1;treeMoving=1;fontSize=14;fillColor=#FFFFFF;fontStyle=1" vertex="1" parent="1">
          <mxGeometry x="1620" y="760" width="110" height="50" as="geometry" />
        </mxCell>
        <mxCell id="t9oLwhMx5HOXyN6hdXH--51" style="edgeStyle=orthogonalEdgeStyle;rounded=0;orthogonalLoop=1;jettySize=auto;html=1;fontSize=14;fontColor=#000000;" edge="1" parent="1" source="t9oLwhMx5HOXyN6hdXH--50" target="t9oLwhMx5HOXyN6hdXH--11">
          <mxGeometry relative="1" as="geometry" />
        </mxCell>
        <mxCell id="t9oLwhMx5HOXyN6hdXH--50" value="&lt;font style=&quot;font-size: 14px&quot;&gt;&lt;b&gt;RepositoryGit&lt;/b&gt;&lt;/font&gt;" style="verticalLabelPosition=bottom;html=1;verticalAlign=top;align=center;strokeColor=none;fillColor=#00BEF2;shape=mxgraph.azure.git_repository;labelBackgroundColor=default;" vertex="1" parent="1">
          <mxGeometry x="1131.5900000000001" y="740" width="50" height="50" as="geometry" />
        </mxCell>
        <mxCell id="t9oLwhMx5HOXyN6hdXH--12" value="&lt;font style=&quot;font-size: 14px&quot;&gt;&lt;b&gt;ConfigServer&lt;/b&gt;&lt;/font&gt;" style="aspect=fixed;html=1;points=[];align=center;image;fontSize=12;image=img/lib/azure2/app_services/API_Management_Services.svg;fontColor=#000000;" vertex="1" parent="1">
          <mxGeometry x="1516" y="150" width="122.5" height="113.07" as="geometry" />
        </mxCell>
        <mxCell id="t9oLwhMx5HOXyN6hdXH--10" value="&lt;b&gt;&lt;font style=&quot;font-size: 14px&quot;&gt;Product&lt;/font&gt;&lt;/b&gt;" style="aspect=fixed;html=1;points=[];align=center;image;fontSize=12;image=img/lib/azure2/ai_machine_learning/Cognitive_Services.svg;fontColor=#000000;" vertex="1" parent="1">
          <mxGeometry x="1109.99" y="132.47" width="109.17" height="77.06" as="geometry" />
        </mxCell>
        <mxCell id="t9oLwhMx5HOXyN6hdXH--11" value="&lt;font style=&quot;font-size: 14px&quot;&gt;&lt;b&gt;Movements&lt;/b&gt;&lt;/font&gt;" style="aspect=fixed;html=1;points=[];align=center;image;fontSize=12;image=img/lib/azure2/ai_machine_learning/Cognitive_Services.svg;fontColor=#000000;" vertex="1" parent="1">
          <mxGeometry x="1111.41" y="591" width="107.75" height="76.06" as="geometry" />
        </mxCell>
        <mxCell id="t9oLwhMx5HOXyN6hdXH--65" value="&lt;b&gt;API GATEWAY&lt;/b&gt;" style="outlineConnect=0;dashed=0;verticalLabelPosition=bottom;verticalAlign=top;align=center;html=1;shape=mxgraph.aws3.internet_gateway;fillColor=#F58534;gradientColor=none;labelBackgroundColor=default;fontSize=20;fontColor=#000000;" vertex="1" parent="1">
          <mxGeometry x="759" y="415" width="200" height="170" as="geometry" />
        </mxCell>
        <mxCell id="t9oLwhMx5HOXyN6hdXH--69" style="edgeStyle=orthogonalEdgeStyle;rounded=0;orthogonalLoop=1;jettySize=auto;html=1;fontSize=15;fontColor=#0000CC;strokeColor=#0000CC;strokeWidth=4;" edge="1" parent="1" source="t9oLwhMx5HOXyN6hdXH--68" target="t9oLwhMx5HOXyN6hdXH--65">
          <mxGeometry relative="1" as="geometry" />
        </mxCell>
        <mxCell id="t9oLwhMx5HOXyN6hdXH--70" style="edgeStyle=orthogonalEdgeStyle;rounded=0;orthogonalLoop=1;jettySize=auto;html=1;fontSize=15;fontColor=#0000CC;strokeColor=#0000CC;strokeWidth=4;" edge="1" parent="1" source="t9oLwhMx5HOXyN6hdXH--68" target="t9oLwhMx5HOXyN6hdXH--10">
          <mxGeometry relative="1" as="geometry" />
        </mxCell>
        <mxCell id="t9oLwhMx5HOXyN6hdXH--71" style="edgeStyle=orthogonalEdgeStyle;rounded=0;orthogonalLoop=1;jettySize=auto;html=1;fontSize=15;fontColor=#0000CC;strokeColor=#0000CC;strokeWidth=4;" edge="1" parent="1" source="t9oLwhMx5HOXyN6hdXH--68" target="t9oLwhMx5HOXyN6hdXH--9">
          <mxGeometry relative="1" as="geometry">
            <Array as="points">
              <mxPoint x="857" y="310" />
            </Array>
          </mxGeometry>
        </mxCell>
        <mxCell id="t9oLwhMx5HOXyN6hdXH--72" style="edgeStyle=orthogonalEdgeStyle;rounded=0;orthogonalLoop=1;jettySize=auto;html=1;fontSize=15;fontColor=#0000CC;strokeColor=#0000CC;strokeWidth=4;" edge="1" parent="1" source="t9oLwhMx5HOXyN6hdXH--68" target="t9oLwhMx5HOXyN6hdXH--14">
          <mxGeometry relative="1" as="geometry">
            <Array as="points">
              <mxPoint x="990" y="138" />
              <mxPoint x="990" y="456" />
            </Array>
          </mxGeometry>
        </mxCell>
        <mxCell id="t9oLwhMx5HOXyN6hdXH--73" style="edgeStyle=orthogonalEdgeStyle;rounded=0;orthogonalLoop=1;jettySize=auto;html=1;fontSize=15;fontColor=#0000CC;strokeColor=#0000CC;strokeWidth=4;" edge="1" parent="1" source="t9oLwhMx5HOXyN6hdXH--68" target="t9oLwhMx5HOXyN6hdXH--11">
          <mxGeometry relative="1" as="geometry">
            <Array as="points">
              <mxPoint x="990" y="138" />
              <mxPoint x="990" y="629" />
            </Array>
          </mxGeometry>
        </mxCell>
        <mxCell id="t9oLwhMx5HOXyN6hdXH--74" style="edgeStyle=orthogonalEdgeStyle;rounded=0;orthogonalLoop=1;jettySize=auto;html=1;fontSize=15;fontColor=#0000CC;strokeColor=#0000CC;strokeWidth=4;entryX=0.627;entryY=-0.014;entryDx=0;entryDy=0;entryPerimeter=0;" edge="1" parent="1" source="t9oLwhMx5HOXyN6hdXH--68" target="t9oLwhMx5HOXyN6hdXH--12">
          <mxGeometry relative="1" as="geometry">
            <Array as="points">
              <mxPoint x="1593" y="100" />
            </Array>
          </mxGeometry>
        </mxCell>
        <mxCell id="t9oLwhMx5HOXyN6hdXH--75" style="edgeStyle=orthogonalEdgeStyle;rounded=0;orthogonalLoop=1;jettySize=auto;html=1;fontSize=15;fontColor=#0000CC;strokeColor=#0000CC;strokeWidth=4;" edge="1" parent="1" source="t9oLwhMx5HOXyN6hdXH--68" target="t9oLwhMx5HOXyN6hdXH--43">
          <mxGeometry relative="1" as="geometry">
            <Array as="points">
              <mxPoint x="1680" y="100" />
              <mxPoint x="1680" y="397" />
            </Array>
          </mxGeometry>
        </mxCell>
        <mxCell id="t9oLwhMx5HOXyN6hdXH--68" value="" style="sketch=0;aspect=fixed;html=1;points=[];align=center;image;fontSize=15;image=img/lib/mscae/Docker.svg;labelBackgroundColor=default;fontColor=#000000;fillColor=#C9F57D;labelBorderColor=default;" vertex="1" parent="1">
          <mxGeometry x="756" y="54.51" width="202.48" height="166.03" as="geometry" />
        </mxCell>
        <mxCell id="t9oLwhMx5HOXyN6hdXH--78" style="edgeStyle=orthogonalEdgeStyle;rounded=0;orthogonalLoop=1;jettySize=auto;html=1;fontSize=14;fontColor=#000000;strokeColor=#0000CC;strokeWidth=4;" edge="1" parent="1" source="t9oLwhMx5HOXyN6hdXH--76" target="t9oLwhMx5HOXyN6hdXH--43">
          <mxGeometry relative="1" as="geometry">
            <Array as="points">
              <mxPoint x="1643" y="514" />
              <mxPoint x="1610" y="514" />
            </Array>
          </mxGeometry>
        </mxCell>
        <mxCell id="t9oLwhMx5HOXyN6hdXH--76" value="&lt;font style=&quot;font-size: 14px&quot; color=&quot;#000000&quot;&gt;&lt;b&gt;CircuitBreaker&lt;/b&gt;&lt;/font&gt;" style="sketch=0;aspect=fixed;html=1;points=[];align=center;image;fontSize=12;image=img/lib/mscae/Cloud_Services_Classic.svg;labelBackgroundColor=default;labelBorderColor=default;fontColor=#0000CC;fillColor=#C9F57D;" vertex="1" parent="1">
          <mxGeometry x="1577.05" y="574.03" width="130.95" height="110" as="geometry" />
        </mxCell>
      </root>
    </mxGraphModel>
  </diagram>
</mxfile>
